<svg width="70" height="59" viewBox="0 0 70 59" fill="none" xmlns="http://www.w3.org/2000/svg">
<g clip-path="url(#clip0)">
<rect width="70" height="60" fill="#333333"/>
<path fill-rule="evenodd" clip-rule="evenodd" d="M0 47.3H69.5V0H0V47.3Z" fill="#FEFEFE"/>
<path d="M0 49.9H1.4V53.7C1.4 54.3 1.4 54.7 1.5 54.9C1.6 55.2 1.7 55.4 1.9 55.6C2.1 55.8 2.4 55.9 2.8 55.9C3.2 55.9 3.5 55.8 3.7 55.7C4 55.5 4.1 55.3 4.2 55C4.2 54.8 4.3 54.4 4.3 53.8V49.9H5.7V53.6C5.7 54.5 5.7 55.1 5.6 55.4C5.5 55.8 5.4 56 5.2 56.3C5 56.5 4.7 56.7 4.4 56.9C4 57 3.5 57.1 2.9 57.1C2.2 57.1 1.7 57 1.4 56.9C1.1 56.8 0.8 56.5 0.6 56.3C0.4 56.1 0.3 55.8 0.2 55.5C0.1 55.1 0.1 54.5 0.1 53.7V49.9H0Z" fill="#FEFEFE"/>
<path d="M11.8002 57H10.4002V54.4C10.4002 53.8 10.4002 53.5 10.3002 53.3C10.2002 53.1 10.1002 53 10.0002 52.9C9.9002 52.8 9.7002 52.8 9.5002 52.8C9.3002 52.8 9.1002 52.9 8.9002 53C8.7002 53.1 8.6002 53.3 8.5002 53.5C8.4002 53.7 8.4002 54.1 8.4002 54.7V57H7.2002V51.9H8.5002V52.7C8.9002 52.1 9.5002 51.8 10.2002 51.8C10.5002 51.8 10.8002 51.9 11.0002 52C11.2002 52.1 11.4002 52.2 11.6002 52.4C11.7002 52.6 11.8002 52.8 11.9002 53C11.9002 53.2 12.0002 53.5 12.0002 53.9V57H11.8002Z" fill="#FEFEFE"/>
<path d="M13.2002 51.2V49.9H14.6002V51.2H13.2002ZM13.2002 57V51.9H14.6002V57H13.2002Z" fill="#FEFEFE"/>
<path d="M15.7002 54.4C15.7002 53.9 15.8002 53.5 16.0002 53.1C16.2002 52.7 16.5002 52.4 16.9002 52.1C17.3002 51.8 17.8002 51.8 18.3002 51.8C19.1002 51.8 19.7002 52.1 20.2002 52.6C20.7002 53.1 20.9002 53.7 20.9002 54.5C20.9002 55.3 20.6002 55.9 20.1002 56.4C19.6002 56.9 19.0002 57.2 18.2002 57.2C17.7002 57.2 17.3002 57.1 16.9002 56.9C16.5002 56.7 16.1002 56.4 15.9002 56C15.8002 55.5 15.7002 54.9 15.7002 54.4ZM17.1002 54.4C17.1002 54.9 17.2002 55.3 17.5002 55.6C17.7002 55.9 18.0002 56 18.4002 56C18.8002 56 19.1002 55.9 19.3002 55.6C19.5002 55.3 19.7002 54.9 19.7002 54.4C19.7002 53.9 19.6002 53.5 19.3002 53.2C19.1002 52.9 18.8002 52.8 18.4002 52.8C18.0002 52.8 17.7002 52.9 17.5002 53.2C17.2002 53.5 17.1002 53.9 17.1002 54.4ZM17.6002 51.2L18.3002 49.8H19.8002L18.5002 51.2H17.6002Z" fill="#FEFEFE"/>
<path d="M26.7 57H25.3V54.4C25.3 53.8 25.3 53.5 25.2 53.3C25.1 53.1 25 53 24.9 52.9C24.8 52.8 24.6 52.8 24.4 52.8C24.2 52.8 24 52.9 23.8 53C23.6 53.1 23.5 53.3 23.4 53.5C23.3 53.7 23.3 54.1 23.3 54.7V57H22V51.9H23.3V52.7C23.7 52.1 24.3 51.8 25 51.8C25.3 51.8 25.6 51.9 25.8 52C26 52.1 26.2 52.2 26.4 52.4C26.5 52.6 26.6 52.8 26.7 53C26.7 53.2 26.8 53.5 26.8 53.9V57H26.7Z" fill="#FEFEFE"/>
<path d="M30.7998 57V49.9H36.0998V51.1H32.2998V52.7H35.8998V53.9H32.2998V55.8H36.2998V57H30.7998Z" fill="#FEFEFE"/>
<path d="M40.7999 57V56.2C40.5999 56.5 40.3999 56.7 40.0999 56.8C39.7999 57 39.4999 57 39.0999 57C38.7999 57 38.3999 56.9 38.1999 56.8C37.8999 56.6 37.6999 56.4 37.5999 56.2C37.4999 55.9 37.3999 55.5 37.3999 55.1V51.9H38.7999V54.3C38.7999 55 38.7999 55.5 38.8999 55.6C38.8999 55.8 38.9999 55.9 39.1999 56C39.2999 56.1 39.4999 56.1 39.6999 56.1C39.8999 56.1 40.0999 56 40.2999 55.9C40.4999 55.8 40.5999 55.6 40.6999 55.4C40.7999 55.2 40.7999 54.7 40.7999 54V51.8H42.1999V57H40.7999Z" fill="#FEFEFE"/>
<path d="M44.7999 57H43.3999V51.9H44.6999V52.6C44.8999 52.3 45.0999 52 45.2999 51.9C45.4999 51.8 45.6999 51.7 45.8999 51.7C46.1999 51.7 46.4999 51.8 46.7999 52L46.3999 53.2C46.0999 53 45.8999 53 45.6999 53C45.4999 53 45.2999 53.1 45.1999 53.2C45.0999 53.3 44.9999 53.5 44.8999 53.8C44.7999 54.1 44.7999 54.6 44.7999 55.5V57V57Z" fill="#FEFEFE"/>
<path d="M47 54.4C47 53.9 47.1 53.5 47.3 53.1C47.5 52.7 47.8 52.4 48.2 52.1C48.6 51.9 49.1 51.8 49.6 51.8C50.4 51.8 51 52.1 51.5 52.6C52 53.1 52.2 53.7 52.2 54.5C52.2 55.3 52 55.9 51.4 56.4C50.9 56.9 50.3 57.2 49.5 57.2C49 57.2 48.6 57.1 48.2 56.9C47.8 56.7 47.4 56.4 47.2 56C47.1 55.5 47 54.9 47 54.4ZM48.4 54.4C48.4 54.9 48.5 55.3 48.8 55.6C49 55.9 49.3 56 49.7 56C50.1 56 50.4 55.9 50.6 55.6C50.8 55.3 51 54.9 51 54.4C51 53.9 50.9 53.5 50.6 53.2C50.4 52.9 50.1 52.8 49.7 52.8C49.3 52.8 49 53 48.8 53.3C48.5 53.5 48.4 53.9 48.4 54.4Z" fill="#FEFEFE"/>
<path d="M53.2998 51.9H54.5998V52.7C54.7998 52.4 54.9998 52.2 55.2998 52.1C55.5998 52 55.8998 51.9 56.1998 51.9C56.7998 51.9 57.2998 52.1 57.6998 52.6C58.0998 53.1 58.2998 53.7 58.2998 54.6C58.2998 55.5 58.0998 56.1 57.6998 56.6C57.2998 57.1 56.7998 57.3 56.1998 57.3C55.8998 57.3 55.6998 57.2 55.3998 57.1C55.1998 57 54.8998 56.8 54.6998 56.5V59H53.2998V51.9ZM54.6998 54.3C54.6998 54.9 54.7998 55.3 54.9998 55.6C55.1998 55.9 55.4998 56 55.7998 56C56.0998 56 56.3998 55.9 56.5998 55.6C56.7998 55.3 56.8998 54.9 56.8998 54.4C56.8998 53.9 56.7998 53.5 56.5998 53.2C56.3998 52.9 56.0998 52.8 55.7998 52.8C55.4998 52.8 55.1998 52.9 54.9998 53.2C54.7998 53.5 54.6998 53.8 54.6998 54.3Z" fill="#FEFEFE"/>
<path d="M62.4001 55.4L63.8001 55.6C63.6001 56.1 63.4001 56.5 63.0001 56.7C62.6001 57 62.2001 57.1 61.6001 57.1C60.7001 57.1 60.0001 56.8 59.6001 56.2C59.3001 55.7 59.1001 55.1 59.1001 54.4C59.1001 53.5 59.3001 52.9 59.8001 52.4C60.2001 51.9 60.8001 51.7 61.5001 51.7C62.3001 51.7 62.9001 52 63.3001 52.5C63.7001 53 64.0001 53.8 63.9001 54.8H60.5001C60.5001 55.2 60.6001 55.5 60.8001 55.7C61.0001 55.9 61.3001 56 61.6001 56C61.8001 56 62.0001 55.9 62.1001 55.8C62.2001 55.8 62.3001 55.6 62.4001 55.4ZM62.5001 54C62.5001 53.6 62.4001 53.3 62.2001 53.1C62.0001 52.9 61.8001 52.8 61.5001 52.8C61.2001 52.8 61.0001 52.9 60.8001 53.1C60.6001 53.3 60.5001 53.6 60.5001 54H62.5001Z" fill="#FEFEFE"/>
<path d="M65.9002 53.4L64.7002 53.2C64.8002 52.7 65.1002 52.3 65.4002 52.1C65.7002 51.9 66.2002 51.7 66.9002 51.7C67.5002 51.7 68.0002 51.8 68.3002 51.9C68.6002 52 68.8002 52.2 68.9002 52.4C69.0002 52.6 69.1002 53 69.1002 53.6V55.2C69.1002 55.7 69.1002 56 69.2002 56.2C69.2002 56.4 69.3002 56.6 69.4002 56.9H68.0002C68.0002 56.8 67.9002 56.7 67.9002 56.5C67.9002 56.4 67.9002 56.4 67.9002 56.3C67.7002 56.5 67.4002 56.7 67.2002 56.8C66.9002 56.9 66.7002 57 66.4002 57C65.9002 57 65.5002 56.9 65.2002 56.6C64.9002 56.3 64.7002 56 64.7002 55.5C64.7002 55.2 64.8002 55 64.9002 54.7C65.0002 54.5 65.2002 54.3 65.5002 54.2C65.7002 54.1 66.1002 54 66.6002 53.9C67.2002 53.8 67.7002 53.7 67.9002 53.6V53.5C67.9002 53.2 67.8002 53.1 67.7002 52.9C67.6002 52.7 67.3002 52.7 67.0002 52.7C66.8002 52.7 66.6002 52.7 66.4002 52.8C66.1002 53 66.0002 53.2 65.9002 53.4ZM67.8002 54.5C67.6002 54.6 67.3002 54.6 67.0002 54.7C66.6002 54.8 66.4002 54.9 66.3002 54.9C66.1002 55 66.0002 55.2 66.0002 55.4C66.0002 55.6 66.1002 55.8 66.2002 55.9C66.3002 56 66.5002 56.1 66.7002 56.1C66.9002 56.1 67.2002 56 67.4002 55.9C67.6002 55.8 67.7002 55.6 67.7002 55.5C67.7002 55.4 67.8002 55.2 67.8002 54.8V54.5Z" fill="#FEFEFE"/>
<path d="M68.1998 1.29999H1.2998V45.9H68.1998V1.29999Z" fill="#003399"/>
<path d="M30.9001 6.79999L32.4001 11.3L28.6001 8.49999H33.3001L29.5001 11.3C29.5001 11.2 30.9001 6.79999 30.9001 6.79999Z" fill="#FFCC00"/>
<path d="M38.5998 6.79999L40.0998 11.3L36.2998 8.49999H40.9998L37.1998 11.3L38.5998 6.79999Z" fill="#FFCC00"/>
<path d="M45.3 10.6L46.8 15.1L43 12.3H47.7L43.9 15.1C43.8 15.1 45.3 10.6 45.3 10.6Z" fill="#FFCC00"/>
<path d="M49.1002 17.3L50.6002 21.8L46.7002 19H51.4002L47.6002 21.8C47.6002 21.7 49.1002 17.3 49.1002 17.3Z" fill="#FFCC00"/>
<path d="M49.0998 24.9L50.5998 29.4L46.7998 26.6H51.4998L47.6998 29.4C47.5998 29.4 49.0998 24.9 49.0998 24.9Z" fill="#FFCC00"/>
<path d="M45.3 31.6L46.8 36.1L43 33.3H47.7L43.9 36.1C43.8 36.1 45.3 31.6 45.3 31.6Z" fill="#FFCC00"/>
<path d="M38.5998 35.5L40.0998 40L36.2998 37.2H40.9998L37.1998 40L38.5998 35.5Z" fill="#FFCC00"/>
<path d="M30.9001 35.5L32.4001 40L28.6001 37.2H33.3001L29.5001 40C29.5001 39.9 30.9001 35.5 30.9001 35.5Z" fill="#FFCC00"/>
<path d="M24.1999 31.6L25.6999 36.1L21.8999 33.3H26.5999L22.7999 36.1L24.1999 31.6Z" fill="#FFCC00"/>
<path d="M20.4 24.9L21.9 29.4L18 26.7H22.7L18.9 29.5C18.9 29.4 20.4 24.9 20.4 24.9Z" fill="#FFCC00"/>
<path d="M20.4 17.3L21.9 21.8L18 19H22.7L18.9 21.8C18.9 21.7 20.4 17.3 20.4 17.3Z" fill="#FFCC00"/>
<path d="M24.1999 10.6L25.6999 15.1L21.8999 12.3H26.5999L22.7999 15.1L24.1999 10.6Z" fill="#FFCC00"/>
</g>
<defs>
<clipPath id="clip0">
<rect width="69.5" height="59" fill="white"/>
</clipPath>
</defs>
</svg>
